<?xml version="1.0" encoding="UTF-8" standalone="no"?>
<!-- Created with Inkscape (http://www.inkscape.org/) -->

<svg
   xmlns:dc="http://purl.org/dc/elements/1.1/"
   xmlns:cc="http://creativecommons.org/ns#"
   xmlns:rdf="http://www.w3.org/1999/02/22-rdf-syntax-ns#"
   xmlns:svg="http://www.w3.org/2000/svg"
   xmlns="http://www.w3.org/2000/svg"
   xmlns:sodipodi="http://sodipodi.sourceforge.net/DTD/sodipodi-0.dtd"
   xmlns:inkscape="http://www.inkscape.org/namespaces/inkscape"
   width="425"
   height="425"
   id="svg2816"
   version="1.1"
   inkscape:version="0.47 r22583"
   sodipodi:docname="logo.svg"
   inkscape:export-filename="/Users/i0n/logo.png"
   inkscape:export-xdpi="13.55"
   inkscape:export-ydpi="13.55">
  <defs
     id="defs2818">
    <inkscape:perspective
       sodipodi:type="inkscape:persp3d"
       inkscape:vp_x="0 : 212.5 : 1"
       inkscape:vp_y="0 : 1000 : 0"
       inkscape:vp_z="428.75 : 212.5 : 1"
       inkscape:persp3d-origin="214.375 : 141.66667 : 1"
       id="perspective2825" />
    <inkscape:perspective
       id="perspective3641"
       inkscape:persp3d-origin="0.5 : 0.33333333 : 1"
       inkscape:vp_z="1 : 0.5 : 1"
       inkscape:vp_y="0 : 1000 : 0"
       inkscape:vp_x="0 : 0.5 : 1"
       sodipodi:type="inkscape:persp3d" />
    <inkscape:perspective
       id="perspective3670"
       inkscape:persp3d-origin="0.5 : 0.33333333 : 1"
       inkscape:vp_z="1 : 0.5 : 1"
       inkscape:vp_y="0 : 1000 : 0"
       inkscape:vp_x="0 : 0.5 : 1"
       sodipodi:type="inkscape:persp3d" />
    <inkscape:perspective
       id="perspective3720"
       inkscape:persp3d-origin="0.5 : 0.33333333 : 1"
       inkscape:vp_z="1 : 0.5 : 1"
       inkscape:vp_y="0 : 1000 : 0"
       inkscape:vp_x="0 : 0.5 : 1"
       sodipodi:type="inkscape:persp3d" />
    <inkscape:perspective
       id="perspective3822"
       inkscape:persp3d-origin="0.5 : 0.33333333 : 1"
       inkscape:vp_z="1 : 0.5 : 1"
       inkscape:vp_y="0 : 1000 : 0"
       inkscape:vp_x="0 : 0.5 : 1"
       sodipodi:type="inkscape:persp3d" />
    <inkscape:perspective
       id="perspective3849"
       inkscape:persp3d-origin="0.5 : 0.33333333 : 1"
       inkscape:vp_z="1 : 0.5 : 1"
       inkscape:vp_y="0 : 1000 : 0"
       inkscape:vp_x="0 : 0.5 : 1"
       sodipodi:type="inkscape:persp3d" />
    <inkscape:perspective
       id="perspective3882"
       inkscape:persp3d-origin="0.5 : 0.33333333 : 1"
       inkscape:vp_z="1 : 0.5 : 1"
       inkscape:vp_y="0 : 1000 : 0"
       inkscape:vp_x="0 : 0.5 : 1"
       sodipodi:type="inkscape:persp3d" />
    <inkscape:perspective
       id="perspective3909"
       inkscape:persp3d-origin="0.5 : 0.33333333 : 1"
       inkscape:vp_z="1 : 0.5 : 1"
       inkscape:vp_y="0 : 1000 : 0"
       inkscape:vp_x="0 : 0.5 : 1"
       sodipodi:type="inkscape:persp3d" />
    <inkscape:perspective
       id="perspective3936"
       inkscape:persp3d-origin="0.5 : 0.33333333 : 1"
       inkscape:vp_z="1 : 0.5 : 1"
       inkscape:vp_y="0 : 1000 : 0"
       inkscape:vp_x="0 : 0.5 : 1"
       sodipodi:type="inkscape:persp3d" />
    <inkscape:perspective
       id="perspective3963"
       inkscape:persp3d-origin="0.5 : 0.33333333 : 1"
       inkscape:vp_z="1 : 0.5 : 1"
       inkscape:vp_y="0 : 1000 : 0"
       inkscape:vp_x="0 : 0.5 : 1"
       sodipodi:type="inkscape:persp3d" />
    <inkscape:perspective
       id="perspective3990"
       inkscape:persp3d-origin="0.5 : 0.33333333 : 1"
       inkscape:vp_z="1 : 0.5 : 1"
       inkscape:vp_y="0 : 1000 : 0"
       inkscape:vp_x="0 : 0.5 : 1"
       sodipodi:type="inkscape:persp3d" />
  </defs>
  <sodipodi:namedview
     pagecolor="#ffffff"
     bordercolor="#666666"
     borderopacity="1.0"
     inkscape:pageopacity="0.0"
     inkscape:pageshadow="2"
     inkscape:zoom="0.8"
     inkscape:cx="210"
     inkscape:cy="210"
     inkscape:document-units="pt"
     inkscape:current-layer="text3726"
     id="namedview2820"
     showgrid="false"
     inkscape:window-width="1276"
     inkscape:window-height="756"
     inkscape:window-x="0"
     inkscape:window-y="0"
     inkscape:window-maximized="0" />
  <metadata
     id="metadata2822">
    <rdf:RDF>
      <cc:Work
         rdf:about="">
        <dc:format>image/svg+xml</dc:format>
        <dc:type
           rdf:resource="http://purl.org/dc/dcmitype/StillImage" />
        <dc:title></dc:title>
      </cc:Work>
    </rdf:RDF>
  </metadata>
  <g
     inkscape:label="Layer 1"
     inkscape:groupmode="layer"
     id="layer1">
    <g
       style="font-size:180px;font-style:normal;font-variant:normal;font-weight:900;font-stretch:normal;fill:#000000;fill-opacity:1;stroke:none;font-family:Arial Black;-inkscape-font-specification:'Arial Black, Heavy'"
       id="text2827">
      <g
         style="font-weight:bold;fill:#000000;font-family:Futura;-inkscape-font-specification:Futura Medium"
         id="text3726">
        <path
           d="M 79.038331,67.734031 78.250122,106.35593 C 65.835922,103.59711 56.476037,98.21107 50.170445,90.197789 43.93051,82.250002 40.810549,71.839181 40.810549,58.965293 c 0,-15.238611 4.729199,-27.192991 14.187632,-35.863182 9.589756,-8.604545 22.693607,-12.906812 39.311569,-12.906801 16.88058,-1.1e-5 30.64126,4.630675 41.28206,13.892058 10.7063,9.261338 16.05949,21.215717 16.0596,35.86317 -1.1e-4,14.581662 -5.15625,26.207633 -15.46845,34.877936 -10.37808,8.670116 -24.13875,13.005226 -41.28207,13.005326 l -6.995285,-0.19704 0,-57.932838 c -10.9035,0.459743 -16.355217,3.546859 -16.355194,9.261371 -2.3e-5,4.466415 2.495946,7.389327 7.48792,8.768738 m 30.148719,0.886732 c 1.97043,-6.7e-5 3.77673,-0.229961 5.41888,-0.689672 1.64201,-0.459856 3.05421,-1.116683 4.23658,-1.970512 1.18223,-0.788264 2.1018,-1.740676 2.75871,-2.857234 0.72244,-1.116671 1.0837,-2.331811 1.08378,-3.645429 -8e-5,-2.758755 -1.2809,-4.991995 -3.84249,-6.699712 -2.49604,-1.707818 -5.71453,-2.561706 -9.65546,-2.56166 l 0,18.424219"
           id="path3731"
           style="fill:#295c96;fill-opacity:1" />
        <path
           d="m 79.432418,175.10462 -36.355804,0 c -0.262728,-2.36466 -0.426943,-4.43369 -0.492623,-6.20709 -0.131358,-1.7735 -0.197049,-3.25138 -0.197049,-4.43362 0,-11.82308 3.546905,-21.70843 10.640715,-29.6561 4.79489,-5.38606 11.363221,-9.75401 19.705049,-13.10385 8.341761,-3.34987 16.913451,-5.02479 25.715084,-5.02479 15.63259,0 28.73643,4.79489 39.31156,14.38468 10.44356,9.52408 15.66539,21.54415 15.66552,36.06023 -1.3e-4,0.85383 -0.033,1.93761 -0.0985,3.25133 -0.0658,1.31361 -0.16432,2.89001 -0.29557,4.72921 l -34.68088,0 c -0.78827,-11.69171 -7.15956,-17.53753 -19.11388,-17.53748 -5.386109,-5e-5 -10.115311,1.44499 -14.187639,4.33511 -3.87537,2.95569 -5.813025,6.46975 -5.812992,10.5422 -3.3e-5,0.39403 -3.3e-5,0.78814 0,1.18229 0.06569,0.45972 0.131336,0.95236 0.197049,1.47788"
           id="path3733"
           style="fill:#295c96;fill-opacity:1" />
        <path
           d="m 42.143922,231.35158 0,-39.60713 106.505758,0 0,39.60713 -106.505758,0 m 139.511698,3.34986 c -6.24006,-4e-5 -11.62609,-2.26614 -16.15813,-6.79824 -4.4666,-4.66356 -6.69983,-10.08244 -6.69971,-16.25666 -1.2e-4,-6.37133 2.26596,-11.82304 6.79823,-16.35519 4.66341,-4.46648 10.11512,-6.69972 16.3552,-6.69971 6.37114,-1e-5 11.79002,2.23323 16.25665,6.69971 4.46632,4.66351 6.69956,10.08239 6.69971,16.25668 -1.5e-4,6.50262 -2.26624,11.98718 -6.79823,16.4537 -4.46662,4.46643 -9.95119,6.69967 -16.45372,6.69971"
           id="path3735"
           style="fill:#295c96;fill-opacity:1" />
        <path
           d="m 107.03919,413.25541 c 0.0656,-1.11662 0.13131,-2.39745 0.19706,-3.84248 0.0656,-1.44503 0.16414,-3.11997 0.29557,-5.0248 0.1313,-1.18228 0.22983,-2.98858 0.29558,-5.41889 -3.80971,6.17426 -7.52082,10.47653 -11.13335,12.90681 -3.546965,2.36461 -7.914907,3.5469 -13.10385,3.5469 -10.706439,0 -19.113913,-4.79489 -25.222456,-14.38468 -6.042896,-9.58977 -9.064333,-22.92348 -9.064323,-40.00123 -1e-5,-17.93151 2.955748,-31.82356 8.867263,-41.67618 5.911494,-9.91809 14.253288,-14.87718 25.025407,-14.8773 5.91147,1.2e-4 10.673518,1.31378 14.286149,3.94101 3.80959,2.62745 7.48786,7.19245 11.03483,13.69501 -0.19711,-3.41545 -0.29564,-5.48447 -0.29557,-6.20709 l -0.3941,-10.73925 0,-58.32693 39.60714,0 0,166.4091 -40.39535,0 M 90.191387,359.55916 c -4.5e-5,14.58178 3.251276,21.87264 9.753993,21.8726 6.1085,4e-5 9.16278,-7.52072 9.16285,-22.56228 -7e-5,-14.3846 -2.95583,-21.57694 -8.86727,-21.57701 -6.699771,7e-5 -10.049618,7.42229 -10.049573,22.26669"
           id="path3737" />
        <path
           d="m 200.48927,413.25541 -39.60714,0 0,-106.50576 39.60714,0 0,106.50576 m 3.34986,-139.51171 c -5e-5,6.24007 -2.26614,11.6261 -6.79825,16.15814 -4.66356,4.4666 -10.08244,6.69983 -16.25666,6.69971 -6.37131,1.2e-4 -11.82304,-2.26597 -16.35517,-6.79824 -4.46649,-4.6634 -6.69973,-10.11512 -6.69973,-16.35519 0,-6.37115 2.23324,-11.79003 6.69973,-16.25665 4.6635,-4.46632 10.08238,-6.69956 16.25666,-6.69972 6.50262,1.6e-4 11.98718,2.26624 16.4537,6.79824 4.46644,4.46662 6.69967,9.95119 6.69972,16.45371"
           id="path3739" />
        <path
           d="m 272.04266,378.476 0,36.35581 c -2.36467,0.26272 -4.4337,0.42694 -6.20709,0.49262 -1.77351,0.13138 -3.25138,0.19705 -4.43363,0.19705 -11.82307,0 -21.70843,-3.5469 -29.65609,-10.64072 -5.38607,-4.79489 -9.75402,-11.36322 -13.10385,-19.70505 -3.34987,-8.34175 -5.0248,-16.91345 -5.0248,-25.71507 0,-15.6326 4.79489,-28.73644 14.38468,-39.31157 9.52408,-10.44355 21.54415,-15.66539 36.06023,-15.66551 0.85384,1.2e-4 1.93761,0.033 3.25133,0.0985 1.31362,0.0658 2.89002,0.16432 4.72922,0.29558 l 0,34.68087 c -11.69171,0.78827 -17.53754,7.15957 -17.53749,19.11389 -5e-5,5.38611 1.44498,10.1153 4.33511,14.18763 2.9557,3.87537 6.46976,5.81303 10.5422,5.81299 0.39403,4e-5 0.78814,4e-5 1.1823,0 0.45972,-0.0657 0.95235,-0.13134 1.47788,-0.19705"
           id="path3741" />
        <path
           d="m 340.12359,377.19517 38.62187,0.78821 c -2.7588,12.41421 -8.14484,21.77408 -16.15813,28.07968 -7.94777,6.23994 -18.35859,9.35989 -31.23249,9.35989 -15.2386,0 -27.19299,-4.72919 -35.86318,-14.18762 -8.60454,-9.58976 -12.9068,-22.69361 -12.9068,-39.31156 0,-16.88059 4.63067,-30.64126 13.89206,-41.28208 9.26134,-10.7063 21.21572,-16.05949 35.86318,-16.0596 14.58166,1.1e-4 26.20762,5.15626 34.87792,15.46846 8.67012,10.37808 13.00523,24.13874 13.00533,41.28207 l -0.19706,6.99528 -57.93282,0 c 0.45974,10.9035 3.54685,16.35522 9.26137,16.35519 4.46641,3e-5 7.38932,-2.49595 8.76875,-7.48792 m 0.88672,-30.14871 c -6e-5,-1.97043 -0.22995,-3.77673 -0.68967,-5.41888 -0.45986,-1.64202 -1.11669,-3.05422 -1.97051,-4.23659 -0.78826,-1.18223 -1.74067,-2.10179 -2.85722,-2.75871 -1.11669,-0.72244 -2.33183,-1.08369 -3.64545,-1.08378 -2.75875,9e-5 -4.99199,1.28091 -6.69971,3.84249 -1.70781,2.49605 -2.56171,5.71454 -2.56166,9.65547 l 18.42422,0"
           id="path3743" />
        <path
           sodipodi:type="arc"
           style="fill:#b3b3b3;fill-opacity:1;stroke:none"
           id="path3855"
           sodipodi:cx="141.25"
           sodipodi:cy="216.25"
           sodipodi:rx="20"
           sodipodi:ry="20"
           d="m 161.25,216.25 a 20,20 0 1 1 -40,0 20,20 0 1 1 40,0 z"
           transform="matrix(1.1560292,0,0,1.120998,19.96042,-95.39744)" />
        <path
           transform="matrix(1.1560292,0,0,1.120998,84.978309,-95.39744)"
           d="m 161.25,216.25 a 20,20 0 1 1 -40,0 20,20 0 1 1 40,0 z"
           sodipodi:ry="20"
           sodipodi:rx="20"
           sodipodi:cy="216.25"
           sodipodi:cx="141.25"
           id="path3996"
           style="fill:#b3b3b3;fill-opacity:1;stroke:none"
           sodipodi:type="arc" />
        <path
           sodipodi:type="arc"
           style="fill:#b3b3b3;fill-opacity:1;stroke:none"
           id="path3998"
           sodipodi:cx="141.25"
           sodipodi:cy="216.25"
           sodipodi:rx="20"
           sodipodi:ry="20"
           d="m 161.25,216.25 a 20,20 0 1 1 -40,0 20,20 0 1 1 40,0 z"
           transform="matrix(1.1560292,0,0,1.120998,84.978309,-30.379561)" />
        <path
           transform="matrix(1.1560292,0,0,1.120998,84.978309,30.154332)"
           d="m 161.25,216.25 a 20,20 0 1 1 -40,0 20,20 0 1 1 40,0 z"
           sodipodi:ry="20"
           sodipodi:rx="20"
           sodipodi:cy="216.25"
           sodipodi:cx="141.25"
           id="path4000"
           style="fill:#b3b3b3;fill-opacity:1;stroke:none"
           sodipodi:type="arc" />
        <path
           style="font-size:medium;font-style:normal;font-variant:normal;font-weight:normal;font-stretch:normal;text-indent:0;text-align:start;text-decoration:none;line-height:normal;letter-spacing:normal;word-spacing:normal;text-transform:none;direction:ltr;block-progression:tb;writing-mode:lr-tb;text-anchor:start;color:#000000;fill:#b3b3b3;fill-opacity:1;stroke:none;stroke-width:37.50000000000000000;marker:none;visibility:visible;display:inline;overflow:visible;enable-background:accumulate;font-family:Futura;-inkscape-font-specification:Futura Medium"
           d="m 161.24996,34.918573 0,42.037426 115.74305,0 c 17.54829,0 33.62994,16.478257 33.62994,40.636181 l 0,175.15594 42.03742,0 0,-175.15594 c 0,-44.155704 -32.66495,-82.673607 -75.66736,-82.673607 l -115.74305,0 z"
           id="rect4006" />
      </g>
    </g>
  </g>
</svg>
