<?xml version="1.0" encoding="UTF-8" standalone="no"?>
<!-- Created with Inkscape (http://www.inkscape.org/) -->

<svg
   xmlns:dc="http://purl.org/dc/elements/1.1/"
   xmlns:cc="http://creativecommons.org/ns#"
   xmlns:rdf="http://www.w3.org/1999/02/22-rdf-syntax-ns#"
   xmlns:svg="http://www.w3.org/2000/svg"
   xmlns="http://www.w3.org/2000/svg"
   xmlns:sodipodi="http://sodipodi.sourceforge.net/DTD/sodipodi-0.dtd"
   xmlns:inkscape="http://www.inkscape.org/namespaces/inkscape"
   width="343pt"
   height="340pt"
   id="svg2859"
   version="1.1"
   inkscape:version="0.47 r22583"
   sodipodi:docname="logo.svg"
   inkscape:export-filename="/Users/i0n/Documents/workspace/ecidice/media/logo/logo.png"
   inkscape:export-xdpi="13.2"
   inkscape:export-ydpi="13.2">
  <defs
     id="defs2861">
    <inkscape:perspective
       sodipodi:type="inkscape:persp3d"
       inkscape:vp_x="0 : 212.5 : 1"
       inkscape:vp_y="0 : 1000 : 0"
       inkscape:vp_z="428.75 : 212.5 : 1"
       inkscape:persp3d-origin="214.375 : 141.66667 : 1"
       id="perspective2868" />
  </defs>
  <sodipodi:namedview
     pagecolor="#ffffff"
     bordercolor="#666666"
     borderopacity="1.0"
     inkscape:pageopacity="0.0"
     inkscape:pageshadow="2"
     inkscape:zoom="0.8"
     inkscape:cx="160"
     inkscape:cy="94.061461"
     inkscape:document-units="pt"
     inkscape:current-layer="layer1"
     id="namedview2863"
     showgrid="false"
     inkscape:window-width="1276"
     inkscape:window-height="756"
     inkscape:window-x="2"
     inkscape:window-y="0"
     inkscape:window-maximized="1" />
  <metadata
     id="metadata2865">
    <rdf:RDF>
      <cc:Work
         rdf:about="">
        <dc:format>image/svg+xml</dc:format>
        <dc:type
           rdf:resource="http://purl.org/dc/dcmitype/StillImage" />
        <dc:title></dc:title>
      </cc:Work>
    </rdf:RDF>
  </metadata>
  <g
     inkscape:label="Layer 1"
     inkscape:groupmode="layer"
     id="layer1">
    <rect
       style="fill:#ffffff;stroke:#000000;stroke-width:18.75000000000000000;stroke-linecap:butt;stroke-linejoin:miter;stroke-miterlimit:5.19999980999999956;stroke-dasharray:none;fill-opacity:1"
       id="rect3671"
       width="417.5"
       height="415"
       x="6.25"
       y="6.25"
       ry="110"
       inkscape:export-xdpi="13.2"
       inkscape:export-ydpi="13.2" />
    <path
       sodipodi:type="arc"
       style="fill:#800000;stroke:#800000;stroke-width:7.5;stroke-linecap:butt;stroke-linejoin:miter;stroke-miterlimit:5.19999981;stroke-dasharray:none"
       id="path3919"
       sodipodi:cx="239.375"
       sodipodi:cy="213.125"
       sodipodi:rx="45.625"
       sodipodi:ry="44.375"
       d="m 285,213.125 a 45.625,44.375 0 1 1 -91.25,0 45.625,44.375 0 1 1 91.25,0 z"
       transform="translate(-26,-2)" />
    <g
       style="font-size:180px;font-style:normal;font-variant:normal;font-weight:normal;font-stretch:normal;fill:#000000;fill-opacity:1;stroke:none;font-family:JazzText Extended;-inkscape-font-specification:Bitstream Vera Sans"
       id="text3942">
      <path
         d="m 65.474754,144.2553 c -0.48003,0.59993 -1.98003,0.89993 -4.5,0.9 -1.92002,-7e-5 -4.44002,-0.18007 -7.56,-0.54 -3.96001,-0.48007 -6.42001,-0.78007 -7.38,-0.9 -4.32,-0.36007 -6.96,-2.28007 -7.92,-5.76 -0.24,-0.84006 -0.36,-3.54006 -0.36,-8.1 l 0,-36 c 5.87999,-3.00001 30.53997,-5.76001 73.979996,-8.28 9.35992,-0.60001 19.25991,5.45999 29.7,18.18 9.23989,11.15996 14.39988,20.51995 15.48,28.08 0.35988,2.27994 -0.36012,4.01994 -2.16,5.22 -1.68011,1.19994 -4.32011,1.67994 -7.92,1.44 -0.60011,-6e-5 -2.28011,-0.12006 -5.04,-0.36 -6.1201,-0.36006 -10.14009,-1.14006 -12.06,-2.34 -1.44009,-0.84006 -2.88009,-2.88006 -4.32,-6.12 -2.04008,-4.56005 -4.20008,-8.46004 -6.48,-11.7 -8.40007,-11.64003 -14.04007,-17.46002 -16.92,-17.46 -0.72006,-2e-5 -1.14006,0.59998 -1.26,1.8 7.31993,17.75996 10.97993,26.99995 10.98,27.72 -7e-5,2.87994 -2.22007,4.67994 -6.66,5.4 -0.96007,0.11994 -4.02006,0.23994 -9.179996,0.36 -8.04005,0.11994 -13.38004,-2.04006 -16.02,-6.48 -3.12004,-7.80005 -6.30004,-15.66004 -9.54,-23.58 -2.76003,-3e-5 -4.08003,-0.06 -3.96,-0.18 0.47997,11.03996 0.71997,19.01995 0.72,23.94 -3e-5,9.35994 -0.54003,14.27993 -1.62,14.76"
         id="path3947"
         style="fill:#808080" />
      <path
         d="m 52.251171,230.37883 c -5.40001,0.23993 -10.74001,-1.38007 -16.02,-4.86 l 0,-46.44 c 5.39999,-9.00001 21.65998,-14.22001 48.78,-15.66 12.71994,-0.72001 26.219919,1.31999 40.499999,6.12 18.35989,6.11998 27.53988,14.69997 27.54,25.74 -1.2e-4,14.39995 -12.2401,22.31994 -36.72,23.76 -11.64007,0.71994 -22.080059,0.0599 -31.319999,-1.98 -5e-5,-2.88006 -0.72005,-5.28005 -2.16,-7.2 -5e-5,-5.76005 5.33995,-8.64004 16.02,-8.64 1.439939,-4e-5 3.599929,0.06 6.479999,0.18 2.99993,0.11996 5.21993,0.17996 6.66,0.18 7.07992,-4e-5 10.61991,-1.56004 10.62,-4.68 -9e-5,-3.24004 -3.48008,-7.08003 -10.44,-11.52 -8.28007,-5.28002 -17.340059,-7.68002 -27.179999,-7.2 -12.48004,0.71998 -19.44003,4.79997 -20.88,12.24 l 0,35.46 -5.04,3.24 c -1.08002,0.71993 -3.36002,1.13993 -6.84,1.26"
         id="path3949"
         style="fill:#808080" />
      <path
         d="m 60.842189,266.12 c -3.12002,0.35996 -5.94002,0.53996 -8.46,0.54 -6.60001,-4e-5 -10.32,-1.20004 -11.16,-3.6 -1.56,-1.68003 -2.34,-3.54003 -2.34,-5.58 0,-2.16002 1.02,-4.38002 3.06,-6.66 8.87999,-0.48002 21.53998,-1.74002 37.98,-3.78 17.39994,-2.28001 30.119931,-3.66001 38.160001,-4.14 3.71992,-0.24001 8.03991,-0.36001 12.96,-0.36 7.7999,-1e-5 14.21989,0.41999 19.26,1.26 1.43989,2.51998 2.15989,5.03998 2.16,7.56 -1.1e-4,2.63998 -0.84011,4.91997 -2.52,6.84 -13.8001,-0.36003 -43.50007,2.27997 -89.100001,7.92"
         id="path3951"
         style="fill:#808080" />
      <path
         d="m 145.14047,349.91859 c -8.46608,12.09067 -15.50612,20.78501 -21.12016,26.08303 -10.68756,10.24216 -20.44513,14.03057 -29.27274,11.36523 -3.37186,-1.04257 -9.087986,-4.38582 -17.148404,-10.02978 C 66.196548,369.35286 60.726779,361.78732 61.189837,354.64042 67.974842,341.8122 73.466643,332.4 77.665247,326.40378 l 3.892365,4.48338 c 4.110125,-6.49754 7.625668,-13.92421 10.546618,-22.27999 -1.16004,-0.22623 -2.8951,-0.78191 -5.20517,-1.66705 l 17.65469,-25.2135 c 9.90991,-3.90136 17.54871,-6.02375 22.91643,-6.36715 7.73682,-0.58869 15.144,1.59477 22.22158,6.55039 12.09057,8.46605 16.58169,19.52138 13.47338,33.16603 -2.03634,8.97525 -8.04456,20.58947 -18.02467,34.8427 m -9.70185,-8.11175 c 3.85433,-5.50469 5.00547,-12.16979 3.45338,-19.99533 -1.34597,-6.6556 -3.54255,-11.05025 -6.5897,-13.184 -4.32521,-3.02844 -8.96026,-4.14979 -13.90517,-3.36406 -4.87624,0.68752 -8.82856,3.19381 -11.85698,7.51889 -4.47395,6.38942 -8.98267,15.75752 -13.52615,28.10433 2.4471,5.08285 5.78409,9.10411 10.01097,12.06377 7.6672,5.36865 13.87513,6.8589 18.6238,4.47068 2.99853,-1.56269 7.59513,-6.76744 13.78985,-15.61428"
         id="path3953" />
      <path
         d="m 204.54375,366.43 c 0.35997,3.12002 0.53997,5.94002 0.54,8.46 -3e-5,6.60001 -1.20003,10.32 -3.6,11.16 -1.68003,1.56 -3.54003,2.34 -5.58,2.34 -2.16002,0 -4.38002,-1.02 -6.66,-3.06 -0.48002,-8.87999 -1.74002,-21.53998 -3.78,-37.98 -2.28001,-17.39994 -3.66001,-30.11993 -4.14,-38.16 -0.24001,-3.71992 -0.36001,-8.03991 -0.36,-12.96 -1e-5,-7.7999 0.41999,-14.21989 1.26,-19.26 2.51999,-1.43989 5.03998,-2.15989 7.56,-2.16 2.63998,1.1e-4 4.91998,0.84011 6.84,2.52 -0.36003,13.8001 2.27997,43.50007 7.92,89.1"
         id="path3955" />
      <path
         d="m 284.46125,371.48 c 0.23993,5.40001 -1.38007,10.74001 -4.86,16.02 l -46.44,0 c -9.00001,-5.39999 -14.22001,-21.65998 -15.66,-48.78 -0.72,-12.71994 1.31999,-26.21992 6.12,-40.5 6.11998,-18.35989 14.69997,-27.53988 25.74,-27.54 14.39995,1.2e-4 22.31994,12.2401 23.76,36.72 0.71994,11.64007 0.0599,22.08006 -1.98,31.32 -2.88006,5e-5 -5.28005,0.72005 -7.2,2.16 -5.76005,5e-5 -8.64004,-5.33995 -8.64,-16.02 -4e-5,-1.43994 0.06,-3.59993 0.18,-6.48 0.11996,-2.99993 0.17996,-5.21993 0.18,-6.66 -4e-5,-7.07992 -1.56004,-10.61991 -4.68,-10.62 -3.24004,9e-5 -7.08003,3.48008 -11.52,10.44 -5.28002,8.28007 -7.68002,17.34006 -7.2,27.18 0.71998,12.48004 4.79998,19.44003 12.24,20.88 l 35.46,0 3.24,5.04 c 0.71993,1.08002 1.13993,3.36002 1.26,6.84"
         id="path3957" />
      <path
         d="m 349.31344,355.5 c 0.59993,0.48003 0.89993,1.98003 0.9,4.5 -7e-5,1.92002 -0.18007,4.44002 -0.54,7.56 -0.48007,3.96001 -0.78007,6.42001 -0.9,7.38 -0.36007,4.32 -2.28006,6.96 -5.76,7.92 -0.84006,0.24 -3.54006,0.36 -8.1,0.36 l -36,0 c -3.00001,-5.87999 -5.76001,-30.53997 -8.28,-73.98 -0.60001,-9.35992 5.45999,-19.25991 18.18,-29.7 11.15996,-9.23989 20.51995,-14.39988 28.08,-15.48 2.27994,-0.35988 4.01994,0.36012 5.22,2.16 1.19994,1.68011 1.67994,4.32011 1.44,7.92 -6e-5,0.60011 -0.12006,2.28011 -0.36,5.04 -0.36006,6.1201 -1.14006,10.14009 -2.34,12.06 -0.84006,1.44009 -2.88005,2.88009 -6.12,4.32 -4.56005,2.04008 -8.46004,4.20008 -11.7,6.48 -11.64003,8.40007 -17.46002,14.04007 -17.46,16.92 -2e-5,0.72006 0.59998,1.14006 1.8,1.26 17.75996,-7.31993 26.99995,-10.97993 27.72,-10.98 2.87995,7e-5 4.67994,2.22007 5.4,6.66 0.11994,0.96007 0.23994,4.02006 0.36,9.18 0.11994,8.04005 -2.04006,13.38004 -6.48,16.02 -7.80004,3.12004 -15.66004,6.30004 -23.58,9.54 -3e-5,2.76003 -0.06,4.08003 -0.18,3.96 11.03996,-0.47997 19.01995,-0.71997 23.94,-0.72 9.35994,3e-5 14.27993,0.54003 14.76,1.62"
         id="path3959" />
    </g>
  </g>
</svg>
